<svg t="1723954320310" class="icon" viewBox="0 0 1024 1024" version="1.1" xmlns="http://www.w3.org/2000/svg" p-id="12691" width="32" height="32"><path d="M512 512m-438.8352 0a438.8352 438.8352 0 1 0 877.6704 0 438.8352 438.8352 0 1 0-877.6704 0Z" fill="#5C5F61" p-id="12692"></path><path d="M840.192 511.7952c0-43.52-54.4768-84.6848-137.9328-110.2336 19.2512-85.0944 10.7008-152.832-27.0336-174.4896-8.704-5.12-18.8928-7.4752-30.0032-7.4752v29.7984c6.144 0 11.1104 1.2288 15.2576 3.4816 18.2272 10.4448 26.112 50.176 19.968 101.3248a411.904 411.904 0 0 1-6.8608 39.3216 648.3968 648.3968 0 0 0-84.9408-14.592 652.6464 652.6464 0 0 0-55.6544-66.9184C576.5632 271.5136 617.5232 249.2928 645.376 249.2928V219.4432c-36.8128 0-84.992 26.2144-133.632 71.68C462.9504 245.9648 414.7712 219.9552 378.0096 219.9552v29.8496c27.648 0 68.7616 22.0672 112.384 62.3616-18.7392 19.6608-37.4784 41.984-55.296 66.7648-30.208 3.2256-58.88 8.192-85.0432 14.6944a403.6608 403.6608 0 0 1-6.9632-38.7584c-6.2976-51.1488 1.4336-90.88 19.5072-101.4272a29.7984 29.7984 0 0 1 15.36-3.4816V220.1088c-11.2128 0-21.3504 2.4064-30.208 7.4752-37.5808 21.7088-46.0288 89.2416-26.624 174.08C237.9776 427.3664 183.7568 468.4288 183.7568 511.7952c0 43.52 54.4768 84.736 137.984 110.2848-19.3024 85.0944-10.752 152.832 26.9824 174.4896 8.704 5.12 18.8928 7.4752 30.1056 7.4752 36.8128 0 84.992-26.2144 133.6832-71.68 48.6912 45.2096 96.8704 71.168 133.632 71.168 11.264 0 21.4528-2.4064 30.2592-7.5264 37.632-21.6576 46.08-89.2416 26.624-174.08 82.944-25.5488 137.1648-66.7136 137.1648-110.08zM665.9584 422.5536a602.624 602.624 0 0 1-18.0224 52.8384 723.968 723.968 0 0 0-36.8128-63.4368c18.9952 2.816 37.376 6.2976 54.8352 10.5984zM604.7232 565.0432c-10.4448 18.0736-21.1456 35.1744-32.256 51.0976a696.1664 696.1664 0 0 1-120.6784 0.1536 696.9344 696.9344 0 0 1-60.2112-104.0896 712.8064 712.8064 0 0 1 59.904-104.448 696.1664 696.1664 0 0 1 120.7296-0.2048A696.9344 696.9344 0 0 1 632.3712 511.6416c-8.448 17.92-17.664 35.84-27.6992 53.4016z m43.2128-17.408c7.168 17.92 13.312 35.84 18.432 53.248-17.5104 4.3008-35.9936 7.936-55.0912 10.752a739.1744 739.1744 0 0 0 36.6592-64zM512.256 690.4832c-12.4416-12.8512-24.8832-27.136-37.2224-42.8544a679.8336 679.8336 0 0 0 73.984 0 522.24 522.24 0 0 1-36.7616 42.8544zM412.7232 611.584c-19.0464-2.7648-37.376-6.2464-54.8864-10.5472 4.9664-17.2544 11.1104-35.072 18.0736-52.8384 5.4784 10.7008 11.264 21.4016 17.5104 32.1024 6.2976 10.7008 12.6976 21.1456 19.3024 31.2832z m98.816-278.4256c12.4928 12.8512 24.9344 27.136 37.2224 42.8032-12.032-0.512-24.32-0.9216-36.7616-0.9216-12.5952 0-25.088 0.256-37.2224 0.9216a522.24 522.24 0 0 1 36.8128-42.8032z m-98.9696 78.848a739.1744 739.1744 0 0 0-36.6592 63.7952 573.44 573.44 0 0 1-18.432-53.248c17.5104-4.1472 35.9424-7.7824 55.0912-10.5984zM291.4816 579.4304C244.1216 559.3088 213.4528 532.7872 213.4528 511.7952c0-20.992 30.6688-47.616 78.0288-67.6864 11.52-4.9664 24.064-9.3696 37.0688-13.5168 7.6288 26.2144 17.664 53.504 30.1056 81.4592C346.368 539.9552 336.4352 567.0912 328.96 593.2032a406.4256 406.4256 0 0 1-37.4784-13.6704z m71.9872 191.232c-18.2272-10.4448-26.112-50.176-19.968-101.3248 1.536-12.544 3.8912-25.8048 6.8608-39.3216 26.2144 6.4 54.8352 11.3664 84.992 14.592 18.0224 24.7296 36.7616 47.2064 55.6032 66.8672-43.6224 40.5504-84.5312 62.7712-112.384 62.7712a31.9488 31.9488 0 0 1-15.104-3.584z m317.3376-101.9904c6.2976 51.1488-1.4336 90.88-19.5072 101.4272a29.7984 29.7984 0 0 1-15.36 3.4816c-27.7504 0-68.8128-22.0672-112.4352-62.3616 18.7392-19.6608 37.4784-41.984 55.296-66.7648 30.208-3.1744 58.88-8.192 85.0944-14.6944 3.072 13.5168 5.4784 26.4704 6.912 38.912z m51.5584-89.2416c-11.52 4.9664-24.064 9.3696-37.0688 13.5168a642.6112 642.6112 0 0 0-30.1056-81.4592c12.288-27.8528 22.2208-54.9888 29.696-81.1008 13.2608 4.1472 25.8048 8.704 37.5808 13.6704 47.36 20.1728 78.0288 46.6944 78.0288 67.6864-0.1536 20.992-30.7712 47.616-78.1312 67.6864z" fill="#07DDFF" p-id="12693"></path><path d="M511.8464 511.7952m-61.1328 0a61.1328 61.1328 0 1 0 122.2656 0 61.1328 61.1328 0 1 0-122.2656 0Z" fill="#07DDFF" p-id="12694"></path></svg>