<?xml version='1.0' encoding='utf-8'?>
<svg xmlns="http://www.w3.org/2000/svg" viewBox="0 0 4000 4000"> <rect width="4e3" height="4e3" fill="#fff"/> <path d="m2186.5 372 10.55 3.268 5.87 2.376 24.8 11.586 13 7.872 25.77 16.709 11.21 9.06 10.77 9.135 4.6 4.456 8.62 8.986 3.27 4.233 18.27 25.621 4.23 6.684 1.34 2.377 2 4.084v0.817l2.97 2.897 4.68 2.302 3.42 1.262 7.5 2.525 4.53 1.263 9.5 2.451 5.2 1.113 46.12 14.705 28.07 14.184 12.85 9.358 25.1 20.423 11.66 12.699 22.8 27.106 10.77 16.264 8.39 13.962 3.79 8.095 1.11 3.565 1.56 6.832 0.08 3.045-0.52 5.867-1.04 2.748-1.49 8.689-0.07 7.5 0.37 4.308 2.6 18.64 2.89 9.432 7.06 29.78 1.63 9.729 0.45 4.233 0.81 8.021v2.97l2.23 19.383 3.2 12.402 2.08 3.862 2.89 7.352 0.6 4.382-0.52 2.154-1.42 4.159-1.48 2.227-3.49 4.53-2.53 2.526-13.36 15.595-9.66 13.071-3.64 5.718-6.9 11.957-2.38 5.644-0.07 2.377 0.59 4.381 1.41 2.302 3.57 4.827 2.82 3.119 5.79 7.427 2.15 4.233 0.23 2.08-0.15 4.232-0.89 2.303-2.23 4.976-1.93 3.044-13.52 13.517-13.29 9.357-7.43 4.084-15 7.576-6.61 2.302-6.39 2.005-2.74 0.446-5.05 0.593-1.86-0.371-6.46 0.594-5.57 1.634-3.12 1.337-13.52 6.609-6.83 4.308-13.07 9.06-4.68 4.308-4.16 4.158-1.33 1.857-2.01 3.486 0.08 1.34 3.93 5.72 6.09 5.64 4.38 3.49 9.73 7.36 5.87 3.93 12.18 8.17 6.68 4.09 48.42 35.05 30.82 27.55 13.89 15.15 26.74 30.97 11.14 15.97 10.69 15.96 4.68 7.95 8.76 15.97 3.64 7.79 19.01 40.85 5.57 11.81 2.23 4.68 4.01 8.39 1.19 2.45 6.61 10.25 7.13 9.28 4.45 5.5 20.2 23.54 11.29 11.66 41 42.55-13.07 21.39-9.51 19.46-3.34 11.21-0.08 4.23 0.75 7.43 1.93 1.71 2.22 1.41 1.49 0.07 3.19-0.22 2.01-0.74 10.32-3.19 6.39-1.34h1.85l4.83-2.97 2.01-4.31v-2.75l4.6-12.92 7.13-7.8 5.05-3.19 11.07-5.87 6.46-1.85 13.36-2.9h7.13l19.09 2.82 11.66 4.68 5.35 3.71 10.17 8.4 4.53 5.64 8.76 12.11 3.79 7.5 7.28 15.89 3.04 9.36 5.87 19.6 2.3 11.22 4.39 23.39 1.56 13.07 2.89 27.11 0.89 15 0.23 4.38v-0.22l-4.68-5.42h-2.16l-4.08 3.49-1.93 2.22-2.9 6.24-1.19 3.2-0.96 6.83 1.71 8.39 2 3.27 4.23 2.97 2.08 0.96 3.79-1.33 1.71-1.12 2.6-5.12 1.04-2.97 2.75 45.97 26.29 4.9 12.32 3.86 8.99 4.09 4.53 2.59 17.97 11.96 7.13 7.13 12.48 13.74 5.72 8.24 1.78 4.16 2.97 8.62 0.74 5.05 0.97 10.69v6.76l-3.86 30.6-6.32 20.27-4.82 9.66-10.62 19.01-6.84 8.61-14.55 16.64-8.54 6.98-18.49 19.38-4.24 6.31-1.33 2.83-2.08 5.19v1.93l2.97 7.95 4.75 6.76 3.64 3.86 7.94 8.1 5.05 4.38 10.7 8.98 6.24 4.53 16.41 12.78 9.95 8.39 4.16 3.86 7.65 7.35 2.6 2.9 4.38 5.35 0.67 1.63 0.96 6.91-0.14 6.46-0.38 3.86-2.74 16.56-2.53 8.32-3.56 14.48-2.01 11.14-0.74 5.79-2.3 23.54 0.22 9.29-0.52 17.3-1.56 10.32-1.41 4.91-3.27 9.5-2.38 4.83-5.27 9.65-3.49 5.13-13.59 24.13-4.31 14.11 0.3 6.98 2.23 14.04 3.56 7.87 3.94 8.1 2.6 4.45 5.64 9.14 3.49 5.12 22.51 36.17 11.8 22.5 4.31 10.55 7.5 20.64 2.23 9.73 3.27 19.24 0.07 9.13-1.04 18.12-2.08 8.84-5.2 17.45-4.23 8.62-9.51 17.08-6.38 8.61-13.74 17.23-8.47 8.76-29.78 26.44-10.54 7.21-5.87 3.19-11.96 6.16-6.83 2.9-14.18 5.57-8.25 2.67-17.15 5.28-9.95 2.67-20.87 5.27-12.03 2.75-25.33 5.64-14.63 3.05-42.4 9.43-25.85 6.54-11.8 3.34-22.95 6.83-10.47 3.56-20.28 7.36-9.28 3.86-18.05 7.94-8.32 4.31-16.11 8.69-7.43 4.68-28.29 19.75-12.55 11.51-26 26.52-13.21 17-5.2 9.36-9.73 19.76-4.23 12.1-4.24 12.63-2.08 7.05-4.16 14.78-2.15 8.39-17.15 47.61-15.53 28.36-10.17 13.22-13.81 19.61-10.25 16.12-5.2 8.76-10.4 17.97-4.83 8.91-9.35 17.68-3.79 8.09-27.78 58.37 17.98 14.04 55.92 39.95 38.32 23.32 20.64 10.62 42.56 20.5 23.91 9.73 24.51 9.73 13.07 4.83 26.81 9.65 14.41 4.83 65.05 23.46 44.49 17.38 22.28 9.36 44.56 19.01 21.75 9.95 43.08 19.98 20.5 10.03 40.1 20.2 18.42 9.87 35.64 19.61 15.67 9.28 29.71 18.35 12.03 8.39 11.66 8.24 4.98 3.86 9.5 7.65 3.86 3.57 36.54 37.95 21.98 27.62 9.66 14.71 18.27 30 7.65 15.67 14.11 31.49 5.27 16.11 6.68 20.06 4.16 12.4 1.78 5.34 3.35 10.03 1.26 3.64 2.15 6.24 0.45 1.26 1.11 4.83-0.52 1.63-1.78 2.6-1.71-0.07-2.08-1.71-2.08-2.68-1.41-2.07-6.24-10.03-4.01-7.35-8.76-15.97-4.9-9.65-10.18-20.13-5.27-11.07-18.94-36.83-12.92-22.43-6.68-10.32-13.52-19.9-7.05-9.14-14.26-17.6-7.5-8.02-15.3-15.52-8.1-7.06-16.48-13.59-8.77-6.24-17.89-11.95-9.51-5.42-19.53-10.55-10.47-4.75-45.82-22.58-13.22-6.98-5.28-2.97-9.43-5.57-2.67-1.93-14.71-8.62-14.18-7.27-8.99-4.24-19.08-8.83-10.99-4.83-22.95-9.95-12.48-5.28-52.43-21.53-27.7-10.7-55.7-21.09-26.14-9.06-34.9-12.47-21.84-8.03-10.25-3.93-39.06-15.52-17.01-7.43-32.3-14.7-13.89-7.13-26.36-14.26-11.22-7.13-17.75-10.62-9.65-5.2-3.79-1.63-6.83-2.53-2.38-0.3-4.16 0.15-1.11 1.19-1.48 2.97 0.22 2.53 1.11 5.86 1.49 4.01 3.56 8.84 2.75 5.5 6.02 11.88 3.86 7.05 13.14 25.18 5.72 12.7 1.49 4.9 2.08 8.84-0.08 3.64-1.04 6.68-1.41 3.05-3.19 9.06-2.23 8.39-1.04 4.9-3.86 21.39-1.04 10.69-7.5 40.7-8.17 25.32-5.65 11.74-12.32 22.87-7.65 10.55-16.49 20.35-9.73 9.2-20.5 17.83-11.8 7.94-24.59 15.23-13.73 6.61-28.6 12.62-15.74 5.35-32.45 9.88-17.75 3.93-53.03 8.69-36.24 2.9h-18.57l-37.28-0.89-18.93-1.78-38.03-4.46-19.16-3.57-38.54-7.94-19.38-5.27-38.77-11.29-19.38-6.91-38.77-14.48-19.24-8.47-38.54-17.6-19.08-9.95-37.95-20.57-18.72-11.36-37.21-23.4-18.26-12.7-36.25-26.14-17.6-14.03-34.98-28.67-16.93-15.22-33.42-31.12-16.04-16.41-31.71-33.42-15.07-17.53-29.64-35.57-14.03-18.57-27.33-37.65-12.78-19.53-10.32-15.52-6.09-8.84-2.75-3.79-10.17-13.29-4.23-4.38-7.87-7.28-3.57-1.86-6.91-2.6h-3.49l-17 2.16-10.55 3.41-4.38 2.38-8.02 5.12-2.6 2.9-4.01 6.09v3.12l-1.86 3.56-2.97 3.2-2.23 2-10.99 8.91-7.72 5.57-16.86 11.66-9.73 6.32-20.27 12.84-10.55 6.32-21.09 12.55-10.02 5.64-19.54 10.69-8.24 4.16-8.02 3.87-3.49 1.56-6.61 2.89-2.6 0.97-4.9 1.56-1.63 0.29-2.83 0.15-0.52-0.52-4.01-0.44-4.68 0.96-3.04 1.04-14.26 5.42-8.24 4.24-25.178 10.84-7.65 2.52-3.119 0.82-5.644 1.19h-1.856l-10.768 2-11.883 3.2-7.649 2.3-16.264 4.98-9.135 3.04-18.863 6.39-9.803 3.49-31.117 10.47-17.378 5.12-6.907 1.56-12.55 2.6-4.382 0.3-7.501-0.08-1.633-1.04-4.976-3.41-1.634-1.78 0.074-0.75 0.594-1.33 1.189-0.75 2.97-1.33 2.303-0.82 125.73-46.56 39.434-15.97 18.715-8.02 36.611-15.97 16.93-7.87 32.98-15.52 14.78-7.5 28.51-14.78 12.33-7.06 23.32-13.66 9.43-6.31 17.31-12.18 6.16-5.42 31.71-22.58 10.25-5.2 4.9-1.78 9.66-3.05 4.53-0.66 23.09-5.8 6.83-2.52 2.75-1.34 4.98-2.6 1.56-1.26 28.74-18.49 20.72-8.84 10.17-2.45 20.05-3.42 8.77 0.52 8.54 0.89 3.78 1.04 7.21 2.53 2.97 1.86 7.2 2.15 5.94-0.15 3.49-0.82 15.08-4.97 8.54-4.9 17.68-11.22 8.91-7.5 17.67-15.89 7.87-9.28 16.57-22.43 10.32-17.16 4.75-9.5 9.21-19.68 4.23-10.62 8.02-21.61 3.49-11.37 12.55-46.71 3.87-24.28 3.34-24.29 1.04-12.18 1.48-24.21v-11.81l-0.07-18.86-0.15-10.32-0.22-4.24-0.37-7.87-0.37-3.12-0.82-5.71-0.52-2.23-2.75-7.21-2.3-2-5.27-3.27-3.87-1.26-15.29-3.49-10.1-1.04-3.35 0.3-7.27-3.57-6.02-6.61-3.64-5.49-7.72-12.48-4.53-8.47-9.58-18.64-5.57-11.66-10.62-22.2-6.09-12.18-2.82-5.13-10.55-17.89-5.94-6.84-12.7-12.92-9.06-6.68-9.58-6.98-5.79-3.94-12.41-8.24-7.42-4.9-22.95-16.57-17.16-13.66-9.06-7.65-37.2-32.68-17.38-16.63-16.93-16.49-7.5-7.72-14.19-15-5.64-6.46-10.25-12.11-3.12-4.6-2.82-4.31-0.82-1.71-1.26-3.04v-1.04l-2.01-4.76-2.89-1.93h-1.86l-3.56 4.38-0.3 6.39 1.04 4.09 1.86 11.43-0.67 4.24-1.34 0.44-3.27-0.22-2.6-1.71-5.71-4.6-3.72-3.87-8.09-8.83-4.9-6.02-10.33-12.92-6.01-8.02-12.55-17.08-6.98-10.03-14.63-20.94-8.02-11.96-31.12-44.93-21.91-30.37-10.69-14.33-20.95-27.71-9.28-11.65-8.99-11.22-4.01-4.83-7.72-9.13-3.19-3.64-36.987-43.89-22.502-29.48-10.174-14.86-19.681-29.7-8.837-14.93-16.858-29.78-7.352-14.93-14.036-29.85-5.942-14.93-11.139-29.7-4.531-14.78-8.243-29.56-3.119-14.7-5.347-29.19-1.634-14.48-2.525-28.89-0.223-14.19 0.446-28.37 1.262-13.88 3.268-27.78 2.748-13.59 6.238-26.96 4.233-13.22 9.135-26.14 5.718-12.77 12.105-25.25 7.13-12.25 15.076-24.21 8.688-11.74 18.047-23.09 10.1-11.14 12.773-14.11 6.907-7.88 2.599-3.19 4.753-5.87 1.634-2.22 2.674-3.94 0.594-1.26 0.594-2.08-0.372-0.37-1.411-0.38-1.485 0.52-3.342 1.42-2.376 1.33-5.347 3.05-3.416 2.08-12.106 5.05-5.718-0.15-1.485-1.49-1.783-3.93 0.891-3.05 2.971-6.76 3.565-4.15 12.922-16.19 4.456-7.28 0.222-2.08-0.891-3.2-2.451-0.29-6.238 0.37-5.124 1.26-13.516 1.93-3.119-0.15-1.04-0.29-1.485-0.89v-0.67l3.044-4.9 4.902-5.87 3.49-4.01 7.798-8.47 4.605-4.82 9.803-10.11 5.347-5.27 13.813-14.92 9.58-11.44 4.827-6.17 18.938-25.69 8.099-12.4 7.72-12.18 3.19-5.57 5.94-10.7 2.08-4.53 3.64-8.24 0.67-2.97 0.67-4.98-0.97-0.96-4.38 3.56-5.72 6.76-3.93 5.2-8.47 11.51-4.97 7.06-10.402 14.85-5.569 8.32-17.452 24.73-11.363 14.7-5.57 6.54-11.14 12.47-5.57 5.5-11.065 10.32-5.496 4.38-11.065 8.25-5.57 3.41-11.139 6.24-5.645 2.45-23.022 7.95-12.105 1.33-12.848 0.82-7.278-0.22-2.896-0.37-5.273-0.97-1.856-0.74-3.268-1.64-0.743-0.96-0.965-2.01 0.371-1.11 1.485-2.23 1.634-1.19 3.936-2.3 2.971-1.04 6.684-2.15 4.381-0.97 23.245-5.94 13.888-4.45 6.312-2.75 12.254-5.72 5.718-3.49 11.214-7.35 5.347-4.53 10.694-9.51 5.347-5.79 10.694-12.11 5.57-7.2 11.289-15.15 6.089-8.91 12.403-18.72 6.832-10.84 21.392-32.23 12.55-17.08 5.79-6.69 11.36-12.32 5.57-4.76 11.14-8.69 5.87-3.486 22.87-15.15 13.89-10.768 5.42-4.901 4.98-4.753 1.93-2.006 3.49-3.936 0.96-1.559 1.49-2.822-0.08-0.817-0.74-1.337h-1.41l-3.79 1.188-3.86 1.783-2.37 1.337-10.48 6.312-5.71 4.084-20.95 12.997-13.81 6.832-6.24 2.303-12.03 3.787-4.75 0.52-8.54 0.148-2.45-1.485-5.95-1.931-6.46-1.188-4.081-0.52-18.417-1.782-10.249-0.223-15.076-1.04-8.614-1.411-3.49-0.891-6.462-2.005-2.302-1.114-4.084-2.302-1.04-1.188-1.411-2.377 0.371-1.114 1.411-2.079 1.931-0.891 4.679-1.635 3.565-0.445 8.02-0.817h5.347l13.888-1.56 9.208-2.673 4.679-2.228 9.358-5.124 4.901-3.565 9.878-7.872 5.27-5.05 10.7-10.917 5.71-6.684 11.81-14.184 6.39-8.467 13.14-17.823 7.21-10.397 14.93-21.685 8.09-12.477 34.01-48.569 21.69-27.552 10.77-11.511 21.68-21.686 11.36-8.837 22.95-16.487 12.48-6.461 25.62-12.031 14.26-4.53 29.56-8.095 16.63-2.896 34.83-5.05 19.76-1.56 20.2-1.411 10.84-0.52 22.06-0.965 11.73-0.297 43.22-1.263 25.55-0.965 10.25-0.446 9.73-0.519 4.15-0.223 7.65-0.446 2.97-0.223 5.28-0.371 1.63-0.223 2.6-0.371 0.15-0.149-3.57-2.748-7.35-2.599-5.57-1.559-12.47-3.194-7.58-1.782-15.89-3.491-8.69-1.782-36.24-6.981-17.08-2.673-16.64-2.525-7.28-0.892-13.66-1.485-5.13-0.297-17.6-0.891-10.62-0.52-4.3-0.222-8.1-0.446-2.67-0.149-4.46-0.297h-0.52l0.67-2.376 3.71-3.193 3.05-2.006 9.73-3.416 9.73-1.634 6.24-0.594 13.29-0.965 7.57-0.223 15.9-0.297 8.54 0.148 35.64 1.263 18.12 1.634 35.87 3.936 15.45 2.97 21.09 3.639 12.7 1.783 5.2 0.519 9.58 0.892h3.27l5.2-0.223 0.59-0.52-2.08-4.084-5.72-3.937-4.53-2.45-10.17-5.05-6.24-2.748-13.29-5.57-7.28-2.896-30.52-11.288-14.63-4.457-14.34-4.158-6.24-1.486-11.95-2.673-4.61-0.52-14.03-2.154-7.65-1.708-2.82-0.965-5.2-1.857-1.64-0.891-2.6-1.931-0.37-0.891-0.07-1.782 0.89-0.743 2.6-1.559 2.23-0.595 5.27-1.039 3.56-0.372 8.03-0.52h4.97l12.85-0.371 6.98-0.52 2.67-0.445 4.83-1.114 1.71-0.669 2.75-1.559 0.59-0.966 0.74-2.079-0.44-1.188-1.34-2.6-1.41-1.559-3.34-3.194-2.45-1.782-5.42-3.713-3.49-2.154-10.1-6.609-4.83-3.714-1.49-1.411-2.23-2.673-0.22-0.965 0.3-1.709 1.04-0.445 2.67-0.594 2.3 0.074 5.13 0.445 3.42 0.594 7.57 1.486 4.6 1.188 9.81 2.599 5.79 1.708 23.69 6.387 13.29 2.896 5.35 0.817 9.88 1.114 3.56-0.074 6.32-0.52 1.78-0.891 2.6-2.153-0.08-1.635-1.19-3.713-2.07-2.376-5.2-5.198-4.09-3.12-9.28-6.535-6.17-3.862-14.25-9.135-5.43-4.158-0.81-1.411-0.45-2.303 1.56-0.742 4.09-1.411 3.56-0.52 8.84 0.223 7.65 1.485 4.38 1.263 18.57 6.312 8.83 4.53 16.94 6.684 14.18 4.159 8.1 1.931 34.53 6.906 17.6 2.228 17.53 2.006 8.09 0.594 15.74 0.891 6.76-0.074 12.63-0.372 4.6-0.743 8.1-1.782 1.78-1.485 5.79-2.451 5.87-1.188 3.71-0.371 16.56-1.04 9.06 0.223 18.12 0.965 7.28 1.114 6.83 1.262 2.53 0.818 4.38 1.708 1.04 0.965 5.94 1.114 7.13-0.594 4.75-0.817 10.25-2.005 5.87-1.485 12.33-3.119 6.53-1.857 26.81-8.318 12.33-4.678 12.03-4.679 5.2-2.302 9.73-4.605 3.64-2.154 12.85-7.946 6.38-4.53 2.16-1.931 3.56-3.639 0.67-1.411 0.59-2.748-0.81-1.039-2.31-1.857-2.3-0.668-5.35-1.114-3.86-0.297-8.39-0.372-5.35 0.075-11.51 0.297-6.9 0.371-42.48-0.594-12.18-1.411-5.13-0.965-9.35-2.229-3.35-1.411-12.03-5.495-3.12-2.451 1.41-0.965 1.94-0.891 1.78-0.372 4.16-0.891 2.89-0.446 6.54-0.891 4.16-0.52 9.06-1.114 5.49-0.668 22.51-2.97 18.34-2.674 10.02-1.56 41.52-6.684 18.12-3.342 61.94-8.466 40.47-2.896 19.23-0.074 37.58 0.817 17.08 1.782 32.98 4.604 14.03 3.64 19.46 4.752 10.62 2.228 4.16 0.669 7.57 1.039 2.53 0.149 4.38-0.074 0.89-0.52 1.12-1.189-0.67-0.965-2.3-2.302-2.38-1.485-5.65-3.342-4.15-2.005-9.06-4.382-5.95-2.525-25.62-12.328-6.31-3.639-2.45-1.634-4.46-3.193-1.48-1.411-2.45-2.6-0.45-1.113-0.44-2.08 0.59-0.742 1.71-1.337 1.71-0.446 3.86-0.594h2.82m337.76 1139-104.86 30.52-69.15 20.5-33.34 10.02-65.8 19.83-30.89 9.43-30.45 9.36-14.56 4.53-28.74 8.91-13.59 4.24-26.59 8.39-12.47 3.94-24.29 7.72-11.14 3.64-21.68 6.98-9.73 3.19-18.71 6.24-8.1 2.75-15.52 5.34-6.46 2.31-11.96 4.3-4.6 1.79-8.17 3.19-2.53 1.19-4.08 2.08-0.45 0.59-5.27 5.13-4.98 3.63-2.97 1.79-13.22 6.98-6.75 2.23-18.5 8.83-4.75 3.42-1.63 1.71-2.82 3.27-0.45 1.41 0.3 6.75 3.86 0.82 3.71-1.48 5.13-1.27 2.22 0.38 0.6 0.74 0.82 2v1.71l-0.52 3.79-0.67 2.6-0.97 6.76 0.52 3.26 0.89 1.12 2.16 1.93 1.85 0.52 4.09 0.74h2.75l9.95 2.75 3.26 4.31-0.07 3.19-1.26 6.98-2.3 4.23-5.72 9.06-4.53 4.98-8.91 11.29-3.72 6.24v1.41l3.34 4.75 5.13 0.45 3.41-0.97 7.43-2.67 4.09-2.38 8.16-5.42 3.87-3.64 13.22-10.84 6.61-3.27 2.59 0.44 4.91 2.31 2.15 3.34 4.31 8.02 2.37 6.31 3.49 10.85 0.89 5.56-0.29 2.16-1.12 4.01-1.33 1.71-3.2 3.26-2.37 1.71-5.87 4.24-2 1.93-0.08 0.59 0.6 1.04 1.18 0.22 3.12 0.45 2.45 0.07 4.98 1.41 2.45 2.23 0.82 1.71 1.33 3.86 0.3 2.6 0.3 5.57-0.3 3.49-1.19 16.93-0.74 9.66-0.15 2.3-4.31 10.77-5.86 9.5-3.57 4.46-13.22 16.26-24.06-33.49-23.76-25.55-19.91-15.67-11.36-6.75-23.39-12.7-12.33-4.76-24.8-8.54-12.26-2.3-12.77-2-5.27-0.38-1.27 0.38-1.48 1.11 0.44 1.19 1.71 2.75 1.93 2.08 6.54 9.87 2.74 7.28v2.75l-2 2.9h-3.42l-2.67-1.04-5.94-2.6-4.01-2.31-8.47-5.19-5.2-3.57-24.13-15.22-15.89-8.69-7.88-3.64-31.04-12.48-14.85-3.49-29.11-4.97-13.59 0.22-26.44 2.23-11.96 3.78-11.73 4.16-5.5 2.75-10.77 5.94-4.97 3.64-9.73 7.58-4.38 4.45-8.54 9.28-3.79 5.28-7.28 10.91-3.19 6.02-5.87 12.55-2.45 6.83-4.53 14.11-1.63 7.65-2.98 15.6-0.81 8.39 0.44 35.87 2.31 11.07 1.85 5.49 4.16 10.99 2.97 5.57 6.39 11.22 4.08 5.86 8.77 11.89 5.34 6.38 11.44 13 6.76 7.13 14.18 14.55 8.25 7.95 22.2 20.94 14.04 12.63 6.83 5.79 27.03 21.76 14.11 9.65 28.89 18.72 16.56 9.21 17.01 9.21 9.28 4.75 19.16 9.58 10.62 5.12 37.36 15.9 23.91 8.17 11.36 2.97 22.36 4.97 10.47 1.34 20.35 1.86 9.28-0.3 18.05-1.26 8.02-1.86 15.3-4.46 6.53-3.41 12.25-7.65 4.83-4.98 8.76-10.77 2.98-6.53 8.39-13.59 4.97-4.31 1.93 0.22 3.2 2.08 0.44 3.34 0.15 8.17-1.48 6.32-9.96 21.31-11.06 13.74-6.98 6.09-14.93 11.44-8.17 4.23-16.78 7.35-8.39 1.56-14.11 1.41-11.44 0.15-6.31-0.3-25.85-2.08-11.29-2.3-22.13-6.16-17.67-6.17-9.8-3.93-20.28-8.39-10.77-4.83-21.76-10.03-11.06-5.42-44.34-22.72-19.98-11.66-19.38-11.51-8.54-5.57-16.26-11-6.61-5.05-15.45-11.65-9.28-6.84-3.79-2.67-7.06-4.98-2.37-1.48-3.86-2.38h-0.37l0.59 2.45 1.71 4.09 1.33 3.04 3.2 6.91 2.08 4.38 4.45 9.36 2.68 5.49 5.64 11.59 3.19 6.46 6.61 13.44 3.64 7.28 15.3 30.52 8.54 16.71 15.37 30.52 9.21 18.79 4.16 8.69 7.95 16.86 3.49 7.87 6.61 15.15 2.89 7.06 10.1 26.51 3.12 11.36 5.05 21.54 0.6 9.36 0.07 17.82-1.78 7.95-4.75 15.52-4.24 7.28-9.58 14.48-6.53 7.28-14.26 14.77-8.84 7.95-35.13 31.56-4.08 85.19-6.39 67.2-7.13 41.89-5.05 19.16-10.84 37.13-6.76 16.49-14.4 31.49-8.4 13.29-19.53 25.92-16.56 18.27-8.98 8.76-18.35 16.86-8.69 6.91-8.69 6.53-4.01 2.75-7.79 5.05-3.49 1.78-13.08 7.13-6.31 3.64-0.74 0.67 1.11 4.08 2.9 5.42 2.3 3.79 5.13 8.17 3.19 4.83 6.83 10.02 3.86 5.43 52.58 66.91 37.8 42.18 20.13 19.68 40.92 38.54 21.46 17.75 43.52 34.46 22.5 15.6 45.6 30 23.4 13.29 47.08 25.25 23.91 10.7 47.98 20.12 24.21 8.02 48.49 14.56 24.21 5.05 10.7 1.78 7.35 0.75 15.74 1.26 9.06 0.37 38.47 0.96 18.42-0.66 46.79-3.79 28.29-4.38 12.7-3.2 24.58-7.05 10.92-4.53 20.94-9.73 9.14-5.87 17.38-12.47 7.42-7.36 13.96-15.22 5.72-8.76 10.62-18.12 4.09-10.18 7.42-21.16 2.53-11.66 2.52-16.79-0.74-5.86-1.63-0.23-1.93 0.15-1.34 0.67-2.82 1.93-1.79 1.64-3.86 3.63-2.37 2.45-4.91 5.35-2.82 3.34-13.66 13.22-3.72 2.53-1.33 0.52-2.45 0.59-0.6-0.52 0.82-7.13 2.75-9.58 2.3-6.61 5.27-14.48 3.42-8.47 7.13-17.74 4.16-9.58 7.35-17.38 4.16-10.33 1.78-4.53 6.02-16.48 1.7-5.94 2.53-10.55v-3.34l-0.82-5.35-1.63-0.96-2.75-4.31 0.15-4.38 1.11-3.05 2.83-6.76 2.45-4.3 5.71-9.29 3.94-5.79 10.62-16.93 8.24-14.33 4.39-7.95 17.52-33.57 7.13-15.37 12.63-25.25 10.1-18.42 5.42-9.28 10.91-18.27 5.43-8.39 10.54-16.04 4.68-6.32 14.93-21.9 8.31-13.97 3.35-6.61 6.09-12.99 2.15-5.94 3.57-11.44 0.89-5.12 9.5-39.14 9.28-24.51 6.09-11.51 13.22-22.43 8.1-10.47 17.23-20.5 10.17-9.58 23.69-20.72 16.27-12.55 8.54-5.64 17.38-10.92 9.35-4.97 19.09-9.66 10.4-4.38 21.31-8.54 11.66-3.94 24.14-7.72 13.29-3.56 27.4-7.06 15.15-3.42 31.34-6.61 17.23-3.26 34.09-7.13 21.98-5.2 9.88-2.67 18.71-5.28 7.36-2.45 13.14-4.6 3.64-1.86 21.54-13.22 13.36-10.25 6.09-5.72 11.89-11.8 5.27-6.39 10.02-12.92 4.31-6.76 7.95-13.59 3.12-6.91 5.64-13.89 1.78-6.9 2.97-13.67 0.45-6.61 0.07-12.99-1.18-6.17-4.76-14.63-5.64-12.92-3.79-7.43-17.23-31.71-10.02-15.29-13.74-21.91-7.43-12.92-2.9-5.72-5.12-11.14-1.78-4.98-2.97-9.58-0.67-4.45-0.74-8.55 0.37-4.01 1.26-7.87 1.41-3.86 3.34-7.57 2.38-3.79 5.35-7.73 3.34-4.01 12.77-17.6 4.46-9.95 0.37-4.6-0.67-9.14-2.23-4.82-5.79-9.88-4.68-5.79-14.41-17.53-72.85 25.25-28.96 10.69-17.68 7.21-7.42 3.41-13.74 6.46-4.76 2.75-7.94 4.98-1.27 1.63-4.9 5.27-3.12 2.08-1.7 0.3-3.49 0.15-2.01-0.67-4.16-1.71-2.45-1.48-10.02-8.02-4.98-5.87-0.74-2.3 1.56-4.61 3.71-3.78 2.97-2.08 6.61-4.38 4.23-2.31 8.91-4.68 5.13-2.37 21.83-9.43 11.96-4.09 24.06-7.42 11.14-2.23 29.63-9.06 9.51-4.09 4.16-2.08 7.72-4.3 2.82-2.08 8.39-5.5 4.61-2.38 1.78-0.59 3.19-0.59 0.97 0.37 1.49 1.19v1.33l1.11 2.6 1.71 0.45 1.26-0.45 6.39-3.27 4.38-4.01 10.62-7.13 2.38-0.44 0.74 0.37 1.11 1.11v1.27l3.19 6.75 4.61 1.86 2.82-0.37 5.87-1.49 2.6-1.93 4.82-4.67 1.27-3.35 4.6-17.08 0.08-9.21-1.41-3.56-3.87-6.46-3.56-2.38-8.02-4.01-5.57-1.26-13.44-4.83-6.46-4.16-1.64-2-2-3.94 1.11-1.41 3.57-2.23h4.3l0.67-2.23-2-3.56-2.01-2.6-4.68-5.64-3.19-3.42-6.91-7.2-4.16-3.94-13.29-13.66-6.98-8.47-2.45-3.94-4.38-7.79-1.19-3.72-1.71-7.28 0.15-3.63 0.89-7.13 1.49-3.64 3.56-7.36 2.75-3.78 6.16-7.73 4.09-4.08 8.91-8.39 5.42-4.53 25.03-26 13.36-19.16 4.68-9.72 8.02-19.39 1.49-8.98 1.19-8.84-0.15-4.09-0.67-7.94-1.11-3.49-8.47-19.09-7.8-10.32-5.35-4.23-11.88-8.02-7.87-3.5-17.16-6.6-10.91-3.12-37.28-13-22.88-10.4-10.54-6.01-20.42-12.78-9.36-7.35-18.12-15.22-8.25-8.54-19.23-18.87-5.05-4.3-1.78-1.41-3.05-2.08h-0.59l-1.56 4.6-0.97 7.13-0.37 5.27-0.67 11.44-0.22 6.91-0.3 14.55v7.95l-1.33 32.45-2.31 19.38-1.78 8.62-4.08 16.49-2.75 7.13-5.94 13.51-3.64 5.72-7.8 10.62-4.6 4.23-9.73 7.73-5.57 2.82-11.59 4.9-6.46 1.41-13.51 2.08h-7.5l-22.43-5.27-14.93-8.62-7.2-6.53-14.26-14.71-6.54-9.28-12.77-20.05-5.57-11.74-6.91-14.63-3.86-7.79-1.78-3.12-6.46-10.4-3.34-2.82-7.21-4.16-4.97-0.74-11.37-0.89-8.31-0.08-33.5-1.04-18.79-1.19-7.42-0.81-13.44-1.86-4.54-1.11-7.64-2.38-1.34-1.41-7.5-3.49-7.28-1.41h-3.79l-9.58-2.45-4.01-3.49v-2.31l-2.89-4.67-4.31-0.75-2.75 1.04-9.65 0.67-7.06-1.63-3.04-1.49-5.5-3.27-1.34-1.85-1.48-3.72 1.63-1.56 2.45-1.18 3.2-1.04 2.3-0.75 10.99-3.04 7.72-1.93 16.79-4.09 9.88-2.3 20.71-4.68 11.14-2.37 81.18-17.38 1.93-35.28 0.59-18.27-0.44-7.94-0.82-2.23-1.93-3.34-1.71-0.45-3.94-0.07m-448.93 826.64 7.28 5.57 4.98 4.38 10.76 9.8 6.24 6.09 13.07 12.92 6.98 7.28 21.02 20.8 13.74 12.55 6.24 5.2 11.88 9.43 4.68 3.19 8.54 5.2 2.45 0.59 41.96 8.99 25.55 4.68 13.22 1.93 27.03 3.71 15.82 1.71 16.19 1.63 8.98 0.9 18.57 1.7 10.4 0.89 32.75 2.83 19.83 1.71 8.91 0.81 17.23 1.49 7.65 0.74 14.85 1.34 6.53 0.59 12.56 1.11 5.49 0.52 10.47 1.04 4.53 0.45 16.12 1.78 5.64 0.74 9.73 1.34 2.82 0.67 4.61 1.26 0.74 0.6 0.74 1.26-0.59 0.67-1.71 1.48-1.41 0.82-3.86 1.78-3.2 0.74-7.05 1.34-4.61 0.45-9.95 0.89-5.86 0.3-12.41 0.52-6.98 0.07-29.85-0.07-17.16-0.52-35.42-1.42-18.79-1.18-37.95-2.6-18.86-1.71-37.51-3.64-17.45-2.15-33.86-4.46-14.48-2.45-14.04-2.53-6.24-1.33-11.96-2.6-5.05-1.41-17.15-6.61-10.92-6.69-6.01-5.05-12.48-11.51-7.5-8.17-7.8-8.61-4.38-5.05-8.99-10.55-5.12-6.09-19.09-23.76-10.91-14.19-4.16-5.86-7.35-10.77-2.01-3.57-1.78-3.26-0.37-1.04-0.45-1.79 0.3-0.29m-428.95-505.3 15.15 2.45 7.42 2.45 14.63 5.72 6.98 4.01 13.74 8.91 6.31 5.65 12.33 12.1 5.5 7.13 16.11 30.52 6.46 23.17 0.97 11.96 0.37 23.99-2.08 11.29-2.6 11.06-1.85 5.2-4.09 10.1-2.67 4.53-15.52 26.22 16.48 15.74 22.65 17.82 15.53 8.25 8.02 2.3 16.33 3.42 8.62-0.08 17.53-1.26 9.35-2.3 11.81-3.49 6.31-2.45 2.38-1.19 4.23-2.45 1.34-1.19 2.08-2.3 0.22-1.04-0.07-2.08-0.89-0.89-2.23-1.71-1.93-0.67-4.53-1.19-3.05-0.37-6.68-0.52h-4.23l-19.09-4.38-12.92-6.39-4.38-4.08-11.96-10.18-6.16-3.56-2.68-0.15-5.42 0.67-3.04 1.93-6.54 4.83-4.38 3.93-7.5 6.09-4.01 2.53-1.49 0.52-2.6 0.52-0.74-0.38-1.19-1.26-0.07-1.19 0.22-2.74 0.67-1.93 1.63-4.16 1.34-2.6 6.91-11.29 5.57-7.06 16.11-17.75 8.84-6.68 3.64-0.74 7.05 0.22 3.12 2.53 6.17 6.83 3.04 5.79 8.39 13.29 5.72 6.39 3.27 2.16 6.91 3.56 4.08 0.97 8.84 1.33h5.42l8.54 2.01 6.68 3.04 3.72 2.23 15.15 10.55 7.27 6.61 13.89 13.88 4.83 6.61 4.38 6.54 1.41 2.89 2.08 5.57v2.23l-0.82 5.79-1.7 1.94-1.79 0.07-4.3-0.52-3.57-1.19-8.09-3.04-5.8-2.45-24.43-6.47-8.24-0.81h-3.71l-7.13 0.29-2.9 0.67-24.58 5.13-14.04 2.45-6.09 0.74-11.66 1.04h-5.12l-9.8-0.52-4.54-0.82-16.93-5.05-8.39-5.34-8.47-5.8-4.53-3.63-9.35-7.88-5.2-4.68-19.46-19.16-10.62-12.25-4.16-5.87-7.5-11.58-2.6-5.57-4.45-10.92-1.04-5.2-1.34-10.25 0.52-4.9 1.78-9.58 2.01-4.53 4.82-8.98 3.64-4.24 7.95-8.31 5.12-3.94 16.42-14.93 6.98-9.21 1.41-3.71 1.34-6.91-1.64-2.15-2-1.93-1.64-0.59-3.56-0.9h-2.45l-7.88-3.19-3.26-4.68v-2.97l-4.16-10.47-6.69-6.02-4.97-2.3-10.92-4.23-6.68-1.26-14.19-2.01h-7.94l-20.05 3.05-11.74 4.82-4.9 3.64-9.36 8.1-3.64 5.05-6.68 10.84-2.3 6.24-3.86 12.99-0.82 7.13-0.89 14.71 0.74 7.72 2.3 15.82 2.45 8.1 5.72 16.41 4.16 8.24 8.02 12.4 7.73 10.03 4.67 5.57 20.87 23.39 11.44 11.37 11.36 11.13 5.42 4.98 10.7 9.58 4.68 3.86 8.83 6.91 3.49 2.23 6.09 3.34h1.71l4.83 2.15 2 3.2v2.08l-0.44 3.93-0.97 1.19-2.23 2-1.7 0.3-3.79 0.22-2.45-0.52-5.13-1.33-3.04-1.26-13.22-6.39-7.87-4.98-16.41-11.06-8.92-6.83-18.04-14.56-9.06-8.1-18.05-16.71-8.47-8.76-16.41-17.67-6.98-8.77-13.22-17.37-4.75-8.1-8.54-16.86-4.16-11.14-1.34-5.57-2.22-10.99-0.3-5.49-0.22-10.85 0.59-5.34 1.71-10.55 1.63-5.2 3.64-10.25 2.6-4.97 5.64-9.88 3.49-4.75 7.58-9.43 4.53-4.46 19.01-15.22 13.67-7.58 7.27-2.52 14.63-4.16 7.5-0.82 15.15-0.82m1096.7-3.41 2.45 3.41 1.56 3.57 3.27 8.32 2.15 6.09 11.22 23.02 9.95 14.26 5.57 5.94 11.36 10.91 5.5 3.5 10.84 5.49h4.6l7.95 2.01 2.53 2.89-0.08 1.86-1.19 3.93-1.85 1.94-4.76 3.71-3.64 1.41-6.53 2.67-2.3 0.6-4.31 0.74-2.38-0.74-5.12-2.23-4.01-2.53-4.31-2.82-2.67-1.78-5.79-3.94-3.57-2.37-18.05-17.38-9.35-14.41-3.12-7.87-4.9-15.89-0.52-7.65 0.44-14.93 2.53-6.24 3.26-5.79 2.08-0.89m176.23-24.66 5.35 2.08 7.95 4.16 1.11 3.12-2.15 2.38-2.6 2.52-2.01 1.56-4.68 3.34-3.19 2.08-6.9 4.46-4.39 2.75-9.43 5.79-5.72 3.42-12.84 8.09-6.84 4.53-13.36 9.06-4.61 3.34-7.05 4.68-3.64 1.93-1.34 0.3-2.3 0.3-0.67-0.45-0.97-1.26v-1.19l0.3-2.75 0.74-1.93 1.64-4.23 1.41-2.68 6.76-11.95 5.34-8.02 15.67-18.05 11.81-9.13 6.17-2.97 12.4-4.83 6.09-0.6m-946.65 9.58-2.83 1.56-6.01 3.94-3.94 3.49-8.47 8.02-5.49 5.65-27.7 28.96 27.33-19.9 22.13-14.04 6.31-3.27 2.53-1.04 4.53-1.56h1.26l5.64-1.85-0.37-1.56-0.89-1.19-2.23-2.67-1.78-1.79-5.64-3.04m671.42-409.94-9.06 2.67-5.27 2.97-2.3 2.23-4.31 4.83-1.85 3.19-3.42 6.91-1.41 4.23-2.68 9.06-0.96 5.49-1.86 11.44-0.67 6.69-1.11 13.96-0.37 8.02-0.45 16.78-0.07 9.43 4.45 64.76 7.28 41.29 5.5 18.79 5.72 18.42 3.34 8.54 6.83 16.64 3.79 7.5 7.8 14.48 4.23 6.31 8.76 11.96 4.61 4.9 13.81 13.81 5.79 4.75 5.5 4.31 2.15 1.34 3.79 2.08h0.97l10.02-4.31 6.98-6.53 3.27-4.68 6.39-10.1 2.6-5.87 4.67-12.03 1.34-6.24 1.78-12.25-0.15-6.61-0.74-2.75-2.08-5.35-1.85-2.45-4.24-4.9-3.04-2.6-11.51-16.49-3.94-14.33-0.07-8.54-0.89-14.26-1.42-12.33-0.96-7.05-4.75-29.86-2.97-14.18-4.01-20.27-2.08-12.04-0.75-4.97-1.11-9.06-0.22-2.97-0.08-4.83 0.45-0.44 5.34-1.19 4.24 1.78 2 1.86 3.86 4.23 1.34 2.6 2.15 5.35v2.74l2.31 7.58 3.41 3.12h2.23l4.31-4.09-0.15-6.9-1.63-5.5-4.24-12.55-3.64-8.47-8.39-18.34-5.72-11.44-14.48-25.77-8.91-12.18-4.38-3.86-8.84-6.38-4.68-1.34-9.73-1.49m-402.51-440.31-27.48 1.485-13.07 1.931-39.51 5.124-11.81 1.263-4.75 0.445-8.76 0.669-2.75 0.074-15.37 3.788-6.76 5.495-1.04 3.862-3.12 5.644-3.56 4.159-2.46 2.079-10.99 8.095-6.38 2.819-16.42 9.06-3.78 2.97-1.19 1.19-1.86 2.38v0.89l-3.27 8.39-5.34 5.79-4.09 2.9-9.21 5.79-5.94 2.83-12.77 5.57-7.65 2.67-42.63 16.34-29.26 12.55-12.92 6.09-12.55 6.01-5.42 2.75-10.33 5.42-4.01 2.3-7.2 4.31-2.23 1.71-3.41 2.9v0.81l0.14 4.53 1.71 1.27 2.97-0.45 3.42-0.67 2.45-0.67 5.57-1.56 3.79-1.11 8.17-2.45 5.34-1.63 11.37-3.5 7.05-2.15 18.42-5.57 10.1-2.97 4.08-1.19 7.58-2 2.89-0.67 5.35-1.19 2.01-0.22 6.24-0.23 1.26 1.04 1.48 2.75v2.38l-3.49 4.31-5.57 4.08-4.01 2.45-8.83 5.13-5.35 2.74-11.22 5.57-6.09 2.75-17.3 8.32-10.1 5.42-4.08 2.45-7.28 4.61-2.3 1.85-3.49 3.34v0.9l3.78 3.78 5.65 0.45 3.56-1.04 7.58-2.15 6.98-1.86 4.08-1.12 17.75-4.75 8.84-2.23 11.96-3.19 6.46-1.41 2.74-0.3 5.2-0.15 2.38 0.67 4.75 1.78 2.38 1.86 4.97 4.31 2.9 3.27 5.94 7.35 3.64 4.97 7.8 10.99 4.83 7.06 10.32 15.15 6.39 9.36 17.3 27.62 8.84 17.01 3.04 8.1 5.2 15.89 1.19 7.8 1.48 15.67-0.66 7.94-2.31 16.12-2.6 8.54-6.16 17.45-4.53 9.51-10.1 19.53-6.46 10.84-14.11 22.5-8.54 12.63-19.01 29.33-11.74 19.46-5.05 8.84-9.28 17-3.34 6.91-3.12 6.61-1.12 2.75-2 5.12-0.52 1.93-2.82 13.52-1.64 11.06-0.66 6.17-2.08 25.99-0.38 13.07-0.29 12.85 0.07 5.87 0.3 11.36 0.3 4.75 0.81 8.77 0.6 3.11 1.33 5.2 0.97 0.89 4.45 1.56 4.39-0.44 9.8-1.56 5.5-1.78 9.28-2.97 11.29-3.42 7.87-2.38 17.15-5.2 10.55-3.19 22.35-6.68 12.78-3.86 26.73-8.03 14.71-4.38 30.37-9.06 16.19-4.82 33.2-9.88 17.37-5.2 35.21-10.47 18.04-5.42 53.03-15.82 33.79-10.18 15.89-4.82 30.97-9.43 14.18-4.39 27.48-8.46 12.18-3.79 23.17-7.28 9.73-3.12 18.27-5.79 6.98-2.38 12.48-4.15 3.86-1.42 6.01-2.3 0.3-0.37 3.05-5.35 1.93-5.05 0.89-3.12 3.12-13.51 0.89-7.06 1.41-13.88-0.22-4.98-0.45-4.53-0.44-1.49-1.19-2.22h-0.89l-4.09 0.81-4.83 1.27-3.34 0.96-7.2 2.23-4.46 1.34-9.28 2.97-5.35 1.71-22.87 7.57-13.22 4.46-27.4 9.28-14.34 4.9-29.03 10.1-14.19 4.98-27.85 9.87-12.47 4.53-23.92 8.77-9.5 3.56-8.99 3.49-3.71 1.49-6.91 2.74-2.52 1.12-13.89 5.42-8.47 2.67-3.49 0.82-6.46 1.34-2.23 0.07-3.71-0.3-0.45-0.81 1.19-4.46 2.82-5.42 2.31-3.71 5.12-8.02 3.19-4.76 6.84-9.87 3.93-5.35 16.64-22.58 8.83-11.21 17.83-21.98 7.87-8.84 7.06-3.19 9.28-2.97 6.61-1.79 14.33-3.71 8.62-2.08 18.26-4.31 10.18-2.23 43.22-9.28 23.17-4.53 46.64-8.76 21.46-3.57 25.4-4.16 15.75-2.67 6.68-1.19 12.62-2.15 4.53-0.82 7.73-1.48 1.56-0.3 7.79 1.56 2.68 4.53-0.22 3.64 0.96 5.49 2.08 3.27 1.71 1.41 8.61 4.98 6.84 1.34 19.3 7.42 12.7 7.73 4.16 4.15 11.29 10.48 5.2 3.63 1.71 0.15 2.67-0.81 0.67-2.01 0.82-5.2-0.08-4.16-2.89-8.46-4.53-8.39-3.35-5.13-7.2-10.77-4.38-5.94-9.14-11.95-4.97-6.02-29.34-40.85-8.46-13.96-3.42-6.38-6.01-12.04-1.79-4.75-17-38.32-13.82-24.73-8.09-11.81-16.86-23.17-9.51-10.91-19.68-21.32-10.76-9.8-10.18-8.69-8.09-6.46-4.68-3.49-19.98-14.71-11.66-8.09-24.21-16.64-12.99-8.54-26.44-17.08-13.3-8.32-26.51-16.33-12.55-7.43-24.58-14.333-10.77-5.867-20.5-10.917-8.02-3.788-7.57-3.416-3.12-1.262-5.72-2.005-2.08-0.52-12.92-1.486-11.29-0.371m580.31 469.8-5.57 1.27-2.53 1.93-4.83 4.75-2.08 3.71-3.86 8.25-1.48 5.34-2.83 11.52-0.89 6.98-1.56 14.7-0.29 8.54-0.08 23.47 0.67 14.18 0.74 6.46 3.94 24.14 3.71 9.95 8.69 18.72 6.31 7.94 13.97 15 9.2 6.69 16.49 11.43 6.61 3.94 6.16 3.57 2.31 1.11 3.93 1.71h0.89l2.75-1.78 1.41-2.9 0.52-2.15 1.41-10.62-0.07-7.65-0.52-16.71-0.89-9.81-2.16-20.49-1.63-10.92-3.49-22.06-2.15-10.91-4.46-21.47-2.52-9.8-5.13-18.71-2.75-7.58-5.49-13.81-2.82-4.24-10.55-13.66-6.76-6.16-3.19-1.64-6.24-2.45m-1951.5 130.11-5.273 7.5-2.154 7.58v3.93l0.817 7.58 1.337 2.6 3.268 4.23h2.005l5.273-5.57 2.153-8.24v-5.2l-2.153-12.25-1.411-2.16-0.891-0.37-1.931-0.3m-1.04-47.6-4.976 3.94-2.005 5.72-0.223 3.56-0.074 7.28 0.743 3.41 2.153 6.32 1.931 1.93 3.639 3.49 1.337 0.59 2.302 0.52 0.743-1.04 1.188-2.82 0.297-2.82 0.371-6.69v-4.82l-2.153-13.15-3.268-5.42m1933.4-331 3.49 2.45 1.48 4.01 0.22 7.88-1.33 8.31-1.19 5.28-2.75 11.21-1.78 6.24-3.86 12.92-2.16 6.68-9.28 26.74-4.75 11.21-4.61 10.55-2.15 4.16-4.16 7.42-1.71 2.08-6.24 6.54-2.82 1.71-5.27 2.45-1.86-0.3-3.19-1.41-0.45-2.08 0.08-5.2 1.63-3.93 3.57-9.14 3.49-9.43 2.15-5.87 9.51-26.29 5.05-14.26 7.05-19.45 4.16-10.92 1.78-4.46 3.49-8.31 1.56-3.27 2.97-5.79 1.27-2.08 2.45-3.49 1.11-0.97 2.08-1.26m-90.83-255.55 15.01 4.604 12.1 7.055 6.39 4.976 12.85 10.694 5.94 6.164 11.36 12.699 4.46 6.535 10.17 17.453 6.24 12.996 2.75 6.98 10.1 29.11 3.34 15.3 5.64 30.67 0.82 14.56 0.44 14.33-0.29 6.69-1.04 13.07-1.04 5.86-2.01 9.58-0.96 3.57-1.93 6.24-0.97 1.78-1.86 2.82-0.96 0.15-1.78-0.52-0.82-1.49-1.71-3.78-0.82-3.12-1.56-7.06-0.74-4.75-1.41-10.32-0.67-6.32-1.19-13.44-0.59-7.87-7.57-52.21-8.69-31.41-6.02-13.59-6.24-13.296-3.41-5.941-7.21-11.585-3.93-5.125-8.1-9.728-4.38-4.159-8.91-7.724-4.75-3.119-15.75-11.363-6.68-6.238-1.41-2.376-1.49-4.233 1.34-1.263 3.93-1.931m109.4 0.075 4.53 2.302 9.65 5.57 5.5 4.084 11.21 8.912 5.57 5.421 19.61 21.314 10.91 14.333 4.38 7.204 7.95 14.336 2.9 7.2 4.97 14.41 1.34 7.13 3.86 18.49 3.27 14.04 1.41 5.64 2.3 22.06-0.59 17.23-1.34 7.13-1.93 9.28-1.04 3.56-2.08 6.24-1.11 2.01-2.16 3.26-1.04 0.6-2 0.37-0.97-0.82-1.85-2.37-0.82-2.16-1.48-5.05-0.67-3.49-1.04-7.57-0.37-4.68-0.45-10.1-0.07-5.87-0.6-22.8-0.96-13.81-0.9-6.31-4.45-23.77-4.01-10.47-9.28-20.27-6.84-9.807-15.15-19.68-10.25-10.546-14.18-15.002-8.32-8.911-3.34-3.639-6.01-6.684-1.86-2.228-2.9-3.565v-0.297l4.24-3.638m-956.68 150.39-11.74 0.52-4.45 0.59-0.67 0.52-0.37 1.12 1.33 0.89 3.49 1.93 3.12 1.34 9.81 3.86 4.08 1.11 7.65 1.63h2.9l5.12-0.52 1.56-1.11 2.3-2.75v-2.22l-1.93-2.83-2.97-1.63-2.15-0.67-10.47-1.93m-253.54-37.5-18.35 2.15-4.3 1.49-1.27 0.89-2.08 1.85v1.04l0.75 2.01 1.33 0.89 3.2 1.71 2.37 0.67 11.22 2.15h7.13l18.34-2.15 4.31-1.49 1.26-0.89 2.08-1.86v-1.04l-2.08-2.89-3.19-1.71-2.38-0.67-11.21-2.15m1068.2-161.83 9.06 2.376 2 1.708 2.3 3.639-1.63 2.08-2.08 2.079-1.78 1.114-4.09 2.153-2.82 1.04-7.57 2.302-4.61 0.595-9.58 0.965-4.9-0.074-9.95-0.372-4.61-0.742-8.68-1.708-3.42-1.337-5.2-2.896-1.93-2.006-0.15-0.965 1.11-3.936 3.2-1.708 7.87-3.194 5.94-1.04 13.15-1.633h8.09m-237.72-144.82-5.2 4.827-1.56 3.342-2.23 7.129 0.3 3.639 1.63 7.055 2.75 2.748 5.42 11.808 2.23 11.586v5.941l0.08 8.317 0.29 2.674 0.82 4.382 0.82 0.816 1.93 0.892 1.56-0.669 3.49-2.154 2.52-2.079 4.98-6.758 2.45-6.09 0.82-3.564 2.08-15.448-0.6-8.02-2.08-15.818-2.52-5.868-2.75-5.495-1.71-1.857-3.56-3.119-2.08-0.371m48.42-16.932-1.78 4.158-1.19 3.788-2.3 9.58-1.42 7.872-0.52 4.382-1.85 18.269-0.08 8.169v10.249l0.23 3.416 0.44 5.57 0.52 1.113 1.12 1.189 0.81-0.891 1.78-2.897 1.27-2.896 2.45-8.392 1.41-7.575 0.59-4.307 1.79-18.789-0.08-9.209-0.37-16.041-0.52-6.313-0.45-1.04-1.04-0.891m-557.06 46.564-23.61 2.154-5.5 1.485-1.63 0.891-2.67 1.857v1.04l0.96 2.005 1.71 0.891 4.08 1.708 3.05 0.669 14.41 2.153h9.2l23.62-2.153 5.5-1.486 1.63-0.891 2.67-1.856v-1.04l-2.67-2.897-4.08-1.708-3.05-0.668-14.41-2.154m-16.04-125.43-9.58 0.149-4.16 0.297-7.72 0.668-3.04 0.594-5.35 1.188-1.64 0.817-2.52 1.783v1.114l1.71 2.153 3.19 0.817 7.87 1.634 6.02 0.52 13.29 0.965 8.39 0.223 17.83 0.297 10.39-0.148 19.61-0.297 10.69-0.223 4.16-0.148 7.5-0.298 2.68-0.148 4.6-0.446 1.26-0.223 1.86-0.52-0.07-0.296-0.82-0.743-1.34-0.372-3.19-0.891-2.53-0.52-5.57-1.113-3.56-0.595-36.46-4.753-23.47-1.559m-216.71-7.649-11.73 0.52-4.46 0.593-0.66 0.52-0.38 1.114 1.34 0.892 3.49 1.93 3.12 1.337 9.8 3.862 4.09 1.114 7.65 1.634h2.89l5.13-0.52 1.56-1.114 2.3-2.748v-2.228l-1.93-2.822-2.97-1.634-2.16-0.668-10.47-1.931"/> </svg>