<svg t="1723955370579" class="icon" viewBox="0 0 1024 1024" version="1.1" xmlns="http://www.w3.org/2000/svg" p-id="28341" width="32" height="32"><path d="M1007.18 971.96c0 22.46-17.57 40.04-40.04 40.04H94.1c-20.51 0-39.06-17.58-39.06-40.04V465.12C28.67 450.48 15 427.04 15 396.77c0-29.3 12.69-51.76 38.08-67.39l-13.67-46.87L952.5 12l44.92 152.34-785.16 232.43h794.92v575.19zM66.75 369.42c-15.62 14.65-15.62 40.04 0 55.67 15.63 15.62 40.04 15.62 55.67 0 15.62-15.63 15.62-41.02 0-55.67-15.63-15.62-40.04-15.62-55.67 0z m786.14-204.1l95.7-28.32-98.63-52.73-95.71 27.34 98.64 53.71z m-227.54 68.36l94.721-28.32-98.631-53.71-94.72 28.32 98.63 53.71z m-228.52 67.38l94.73-28.32-98.63-53.71-94.73 28.32 98.63 53.71z m-133.79 39.06l-98.63-53.71-75.19 22.46 1.95 8.79H94.1c34.18 0 62.5 20.51 74.22 50.79l94.72-28.33z m-88.86 96.68L94.1 515.91h99.61l79.1-79.11h-98.63z m237.3 0l-79.1 79.11h99.61l79.1-79.11h-99.61z m238.28 0l-79.1 79.11h99.609l79.101-79.11h-99.61z m317.38 0h-79.1l-79.101 79.11H928.08l39.06-40.04V436.8z" p-id="28342" fill="#4dd76e"></path></svg>